HIERARCHY
ROOT Hips
{
	OFFSET 62.890800 8.863803 43.568401
	CHANNELS 6 Xposition Yposition Zposition Zrotation Xrotation Yrotation
	JOINT Chest
	{
		OFFSET -0.160400 1.630001 7.806301
		CHANNELS 6 Xposition Yposition Zposition Zrotation Xrotation Yrotation
		JOINT Chest2
		{
			OFFSET 0.000000 0.000000 3.197998
			CHANNELS 6 Xposition Yposition Zposition Zrotation Xrotation Yrotation
			JOINT Neck
			{
				OFFSET 0.000000 0.000001 7.440701
				CHANNELS 6 Xposition Yposition Zposition Zrotation Xrotation Yrotation
				JOINT Head
				{
					OFFSET 0.000000 0.000000 2.173901
					CHANNELS 6 Xposition Yposition Zposition Zrotation Xrotation Yrotation
					End Site
					{
						OFFSET 0.000000 0.000001 10.420303
					}
				}
			}
			JOINT LeftCollar
			{
				OFFSET 2.426399 -1.880099 4.759399
				CHANNELS 6 Xposition Yposition Zposition Zrotation Xrotation Yrotation
				JOINT LeftShoulder
				{
					OFFSET 4.420197 0.000000 0.000000
					CHANNELS 6 Xposition Yposition Zposition Zrotation Xrotation Yrotation
					JOINT LeftElbow
					{
						OFFSET 0.000000 -0.000001 -10.347099
						CHANNELS 6 Xposition Yposition Zposition Zrotation Xrotation Yrotation
						JOINT LeftWrist
						{
							OFFSET 0.000000 -0.000001 -12.496300
							CHANNELS 6 Xposition Yposition Zposition Zrotation Xrotation Yrotation
							End Site
							{
								OFFSET 0.000000 0.000000 -2.173901
							}
						}
					}
				}
			}
			JOINT RightCollar
			{
				OFFSET -2.781502 -1.903799 5.072601
				CHANNELS 6 Xposition Yposition Zposition Zrotation Xrotation Yrotation
				JOINT RightShoulder
				{
					OFFSET -4.012100 0.000000 0.000000
					CHANNELS 6 Xposition Yposition Zposition Zrotation Xrotation Yrotation
					JOINT RightElbow
					{
						OFFSET 0.000000 -0.000001 -10.346600
						CHANNELS 6 Xposition Yposition Zposition Zrotation Xrotation Yrotation
						JOINT RightWrist
						{
							OFFSET 0.000000 -0.000001 -12.562599
							CHANNELS 6 Xposition Yposition Zposition Zrotation Xrotation Yrotation
							End Site
							{
								OFFSET 0.000000 0.000000 -2.173901
							}
						}
					}
				}
			}
		}
	}
	JOINT LeftHip
	{
		OFFSET 2.047997 -0.047200 -2.693199
		CHANNELS 6 Xposition Yposition Zposition Zrotation Xrotation Yrotation
		JOINT LeftKnee
		{
			OFFSET 0.000000 -0.000001 -18.824400
			CHANNELS 6 Xposition Yposition Zposition Zrotation Xrotation Yrotation
			JOINT LeftAnkle
			{
				OFFSET 0.000000 -0.000002 -19.078199
				CHANNELS 6 Xposition Yposition Zposition Zrotation Xrotation Yrotation
				End Site
				{
					OFFSET 0.000000 -9.342100 0.000001
				}
			}
		}
	}
	JOINT RightHip
	{
		OFFSET -2.129898 -0.022300 -2.538300
		CHANNELS 6 Xposition Yposition Zposition Zrotation Xrotation Yrotation
		JOINT RightKnee
		{
			OFFSET 0.000000 -0.000001 -18.644600
			CHANNELS 6 Xposition Yposition Zposition Zrotation Xrotation Yrotation
			JOINT RightAnkle
			{
				OFFSET 0.000000 -0.000002 -18.801399
				CHANNELS 6 Xposition Yposition Zposition Zrotation Xrotation Yrotation
				End Site
				{
					OFFSET 0.000000 -8.914600 0.000001
				}
			}
		}
	}
}
MOTION
Frames: 6
Frame Time: 0.041667
-2.239517 -41.063900 41.189140 -362.727550 4.277410 -5.535653 -0.160399 1.630009 7.806302 2.752836 10.101601 -2.638464 0.000004 0.000001 3.198002 3.099446 -2.445257 0.612720 -0.000004 0.000003 7.440699 -48.341408 -5.761692 13.252765 -0.000004 0.000003 2.173901 -5.206726 4.204296 -10.004313 2.426398 -1.880102 4.759396 -182.455963 178.370950 -175.271615 4.420190 0.000003 -0.000005 -36.633043 -11.655193 -111.489909 -0.000010 0.000007 -10.347089 406.726263 -22.575747 5.936901 -0.000010 0.000002 -12.496294 -26.436145 152.971102 229.677405 -2.781500 -1.903802 5.072608 -168.269141 -186.727236 175.253966 -4.012096 -0.000000 0.000010 38.346475 -13.768125 390.146880 -0.000010 0.000001 -10.346601 -31.738906 -18.636649 -21.507250 0.000004 -0.000010 -12.562600 1248.205924 -150.628143 144.796199 2.047997 -0.047198 -2.693197 54.718865 -37.312176 19.425963 0.000002 -0.000001 -18.824402 115.337388 117.246303 -139.117225 -0.000001 -0.000005 -19.078207 8.900860 4.346224 3.111184 -2.129898 -0.022291 -2.538294 -396.808746 -24.324831 -2.290501 0.000001 -0.000010 -18.644600 227.508397 121.862077 141.536765 -0.000003 -0.000003 -18.801401 -20.826403 -16.379007 -20.875362
-2.695007 -41.321995 41.484547 -362.317493 3.693714 -4.630929 -0.160400 1.630010 7.806310 2.410163 10.082211 -3.073853 0.000008 0.000002 3.198005 2.730807 -2.454926 0.546745 -0.000001 0.000003 7.440701 -46.914852 -4.690320 13.008499 -0.000004 0.000002 2.173907 -5.042056 4.007297 -9.606248 2.426399 -1.880103 4.759401 -182.728925 178.405088 -175.485154 4.420193 -0.000002 -0.000003 -35.061816 -11.168070 -110.928146 -0.000002 0.000001 -10.347097 406.030431 -17.610436 4.831056 0.000015 0.000001 -12.496293 -18.112712 153.630325 228.050481 -2.781502 -1.903800 5.072603 -169.888320 -185.609079 174.351001 -4.012102 0.000002 0.000005 37.366548 -11.103920 390.994398 -0.000001 0.000002 -10.346596 -30.976243 -17.295245 -19.139628 -0.000002 -0.000005 -12.562593 1246.607004 -150.898399 145.061374 2.047995 -0.047193 -2.693192 51.236254 -36.398365 17.021520 -0.000007 -0.000001 -18.824402 121.912484 118.679072 -141.047846 -0.000002 -0.000009 -19.078197 7.524884 3.856490 2.794665 -2.129895 -0.022299 -2.538298 -391.161136 -21.532870 -0.077575 -0.000004 0.000003 -18.644596 219.093385 123.615878 144.452340 0.000000 -0.000002 -18.801399 -18.881184 -13.596739 -19.645591
-3.131706 -41.593098 41.788948 -362.304816 3.005336 -3.556302 -0.160399 1.630002 7.806306 2.467817 10.230538 -3.486353 0.000002 -0.000002 3.198004 1.948287 -2.662203 0.429254 -0.000003 0.000002 7.440695 -45.081270 -3.198639 12.571738 -0.000005 0.000001 2.173897 -4.912815 3.771183 -9.227154 2.426404 -1.880101 4.759389 -182.799631 178.535585 -175.865446 4.420195 0.000004 -0.000001 -33.665972 -10.446464 -109.953205 0.000001 0.000001 -10.347104 403.898455 -12.630125 3.463855 -0.000009 -0.000004 -12.496290 -7.620325 155.046414 227.774870 -2.781504 -1.903802 5.072594 -171.522579 -185.086857 174.903796 -4.012102 0.000007 -0.000001 35.855143 -9.567571 391.288205 -0.000005 0.000006 -10.346596 -29.415589 -15.704751 -16.380219 -0.000002 0.000004 -12.562597 1244.887982 -151.593754 145.896652 2.047997 -0.047198 -2.693196 47.719557 -35.204499 14.324218 0.000002 0.000001 -18.824402 130.799256 119.956345 -146.102049 -0.000003 -0.000000 -19.078201 6.523084 3.589639 3.446840 -2.129891 -0.022301 -2.538293 -387.358524 -19.239683 1.358785 0.000002 0.000003 -18.644600 213.967082 124.480840 145.380508 -0.000001 -0.000002 -18.801395 -15.862942 -9.462158 -17.464042
-3.532516 -41.871098 42.084648 -362.601192 2.404817 -2.424472 -0.160400 1.629999 7.806308 2.859966 10.281211 -3.966014 0.000003 0.000007 3.198003 0.765409 -2.617878 0.260347 -0.000001 0.000006 7.440705 -42.760051 -1.765348 11.826423 -0.000005 -0.000001 2.173908 -4.761141 3.410333 -8.776423 2.426404 -1.880096 4.759398 -182.601487 178.840294 -176.105882 4.420191 0.000007 -0.000011 -32.355900 -9.680929 -108.470658 0.000002 0.000002 -10.347095 400.005056 -8.001280 1.937191 -0.000005 0.000006 -12.496299 6.625210 156.420512 226.595665 -2.781503 -1.903795 5.072610 -172.372924 -184.474339 174.476185 -4.012102 -0.000002 0.000000 34.165153 -7.027388 393.248770 -0.000013 0.000001 -10.346598 -27.128270 -14.138685 -13.119497 -0.000005 -0.000002 -12.562599 1241.301422 -152.652037 147.437802 2.047999 -0.047197 -2.693198 45.104752 -33.862473 12.071432 0.000000 -0.000004 -18.824398 140.541893 121.104377 -153.431607 0.000001 -0.000001 -19.078203 5.134319 3.943945 2.684466 -2.129895 -0.022296 -2.538298 -385.580981 -18.014120 2.304169 -0.000006 -0.000001 -18.644600 211.824233 123.970747 144.929019 -0.000003 -0.000002 -18.801403 -11.454009 -3.797995 -13.842662
-3.919907 -42.137997 42.356647 -363.197795 1.652320 -1.458948 -0.160399 1.629997 7.806302 3.519424 10.623570 -4.172233 0.000005 0.000002 3.197997 -0.598075 -2.626648 0.067496 -0.000002 0.000005 7.440697 -40.068362 -0.235857 10.794858 -0.000004 -0.000001 2.173915 -4.528236 2.982394 -8.157834 2.426398 -1.880099 4.759402 -183.377752 178.684565 -177.127951 4.420200 0.000001 0.000004 -29.495356 -6.241700 -106.233661 -0.000002 -0.000006 -10.347101 397.065999 -3.613270 0.560578 -0.000001 0.000008 -12.496293 23.766034 158.112322 226.956476 -2.781503 -1.903800 5.072604 -173.876262 -183.476189 174.132067 -4.012098 0.000006 -0.000000 33.886314 -3.734654 395.924155 -0.000006 0.000006 -10.346599 -24.862087 -12.012650 -9.769165 -0.000002 0.000006 -12.562607 1235.360688 -154.160211 150.387392 2.047996 -0.047204 -2.693195 42.830938 -32.387145 9.923660 -0.000007 -0.000001 -18.824400 146.848111 122.830652 -158.971779 -0.000001 -0.000002 -19.078201 4.961168 3.679824 3.255227 -2.129900 -0.022302 -2.538298 -385.879569 -17.881850 3.104681 -0.000001 -0.000009 -18.644590 213.774525 122.395159 142.602274 -0.000000 -0.000000 -18.801395 -6.184750 2.247117 -9.965626
-4.287834 -42.396992 42.594650 -364.349447 1.148855 -0.320651 -0.160399 1.630002 7.806300 4.773542 10.487026 -4.514760 0.000007 0.000001 3.198003 -2.172941 -2.512119 -0.157972 0.000002 0.000014 7.440699 -36.938780 1.406282 9.650787 -0.000009 0.000005 2.173903 -4.195634 2.513439 -7.474179 2.426400 -1.880092 4.759393 -183.764491 178.410046 -177.927343 4.420191 0.000002 0.000008 -27.543091 -3.410301 -103.438461 0.000001 0.000006 -10.347102 388.725272 0.316909 -0.548262 -0.000001 0.000003 -12.496305 44.255774 159.799611 228.869271 -2.781502 -1.903795 5.072598 -174.793038 -183.234318 175.029977 -4.012100 0.000000 -0.000012 31.924110 -2.441661 398.518944 -0.000004 -0.000005 -10.346598 -22.723793 -9.320311 -7.100958 -0.000003 -0.000004 -12.562601 1229.009705 -155.947248 153.828756 2.047997 -0.047197 -2.693197 41.098454 -31.423061 7.846596 -0.000001 -0.000007 -18.824400 150.349403 124.648425 -162.609510 -0.000008 -0.000000 -19.078196 6.536676 3.838126 3.340702 -2.129896 -0.022302 -2.538300 -388.683116 -19.163586 2.975158 0.000002 -0.000005 -18.644600 220.486908 119.958940 138.442621 -0.000000 0.000000 -18.801397 -1.515334 7.367454 -7.366975
